<?xml version="1.0" encoding="UTF-8" standalone="no"?>
<!-- Created with Inkscape (http://www.inkscape.org/) -->
<svg xmlns:rdf="http://www.w3.org/1999/02/22-rdf-syntax-ns#" xmlns="http://www.w3.org/2000/svg" height="140.09" width="140.78" version="1.1" xmlns:cc="http://creativecommons.org/ns#" xmlns:dc="http://purl.org/dc/elements/1.1/">
	<metadata>
		<rdf:RDF>
			<cc:Work rdf:about="">
				<dc:format>image/svg+xml</dc:format>
				<dc:type rdf:resource="http://purl.org/dc/dcmitype/StillImage"/>
				<dc:title/>
			</cc:Work>
		</rdf:RDF>
	</metadata>

    <rect style="enable-background:accumulate;color:#b3b3b3;" fill-rule="evenodd" ry="8.5121" height="17.024" width="89.035" y="33.597" x="25.874" fill="#b3b3b3">
        <title>Notes for this Item</title>
    </rect>

	<rect style="enable-background:accumulate;color:#b3b3b3;" fill-rule="evenodd" ry="8.5121" height="17.024" width="89.035" y="61.535" x="25.874" fill="#b3b3b3">
        <title>Notes for this Item</title>
    </rect>

	<rect style="enable-background:accumulate;color:#b3b3b3;" fill-rule="evenodd" ry="8.5121" height="17.024" width="89.035" y="89.472" x="25.874" fill="#b3b3b3">
        <title>Notes for this Item</title>
    </rect>

	<path style="enable-background:accumulate;color:#b3b3b3;" fill-rule="nonzero" fill="#b3b3b3" d="M16.344,0.0000042236c-9.0624,0-16.344,7.2815-16.344,16.344v107.41c0,9.0622,7.2816,16.344,16.344,16.344h108.06c9.0622,0,16.375-7.2815,16.375-16.344v-107.41c0-9.0585-7.31-16.34-16.37-16.34h-108.06zm10.344,18.469h87.406c4.495,0,8.125,3.63,8.125,8.125v86.906c0,4.495-3.63,8.125-8.125,8.125h-87.406c-4.4951,0-8.125-3.63-8.125-8.125v-86.906c0-4.495,3.6299-8.125,8.125-8.125z">
        <title>Notes for this Item</title>
    </path>
</svg>
