<?xml version="1.0" encoding="UTF-8" standalone="no"?>
<!-- Created with Inkscape (http://www.inkscape.org/) -->
<svg xmlns:rdf="http://www.w3.org/1999/02/22-rdf-syntax-ns#" xmlns="http://www.w3.org/2000/svg" height="111.58" width="111.58" version="1.1" xmlns:cc="http://creativecommons.org/ns#" xmlns:dc="http://purl.org/dc/elements/1.1/">
	<metadata>
		<rdf:RDF>
			<cc:Work rdf:about="">
				<dc:format>image/svg+xml</dc:format>
				<dc:type rdf:resource="http://purl.org/dc/dcmitype/StillImage"/>
				<dc:title/>
			</cc:Work>
		</rdf:RDF>
	</metadata>
    <path style="enable-background:accumulate;color:#b3b3b3;" fill-rule="evenodd" fill="#b3b3b3" d="M21.438,0c-5.474,0-10.962,2.087-15.157,6.2812-8.3885,8.3888-8.3885,21.893,0,30.281l19.219,19.219-19.219,19.219c-8.3885,8.389-8.3885,21.893,0,30.28,8.3888,8.39,21.893,8.39,30.281,0l19.219-19.218,19.219,19.218c8.389,8.39,21.893,8.39,30.28,0,8.39-8.387,8.39-21.891,0-30.28l-19.218-19.219,19.218-19.219c8.39-8.388,8.39-21.892,0-30.281-8.387-8.3885-21.891-8.3885-30.28,0l-19.219,19.219-19.219-19.219c-4.194-4.1942-9.651-6.2812-15.124-6.2812z">
        <title>Delete this Item</title>
    </path>
</svg>
